<mxfile host="app.diagrams.net" modified="2025-08-29T04:21:00.000Z" agent="Grok" version="1.0" type="device">
  <diagram id="architecture" name="PDF to Speech Architecture">
    <mxGraphModel dx="1000" dy="1000" grid="1" gridSize="10" guides="1" tooltips="1" connect="1" arrows="1" fold="1" page="1" pageScale="1" pageWidth="1100" pageHeight="700" math="0" shadow="0">
      <root>
        <mxCell id="0"/>
        <mxCell id="1" parent="0"/>
        <!-- Input Cloud (Data Source) -->
        <mxCell id="2" value="Input Data" style="shape=cloud;whiteSpace=wrap;html=1;fillColor=#005A9E;strokeColor=#003087;fontColor=#FFFFFF;fontSize=14;" vertex="1" parent="1">
          <mxGeometry x="100" y="100" width="150" height="100" as="geometry"/>
        </mxCell>
        <!-- Input Details -->
        <mxCell id="3" value="life_3_0.pdf&#xa;Voice Sample (trox.m4a/whis.mp3)" style="text;whiteSpace=wrap;html=1;fillColor=#E6F0FA;strokeColor=#005A9E;fontSize=12;" vertex="1" parent="1">
          <mxGeometry x="100" y="210" width="150" height="60" as="geometry"/>
        </mxCell>
        <!-- Text Extraction Service (Azure Process) -->
        <mxCell id="4" value="Text Extraction Service" style="rounded=1;whiteSpace=wrap;html=1;fillColor=#4A90E2;strokeColor=#003087;fontColor=#FFFFFF;fontSize=14;" vertex="1" parent="1">
          <mxGeometry x="300" y="100" width="150" height="100" as="geometry"/>
        </mxCell>
        <!-- Audio Generation Service (Azure Process) -->
        <mxCell id="5" value="Audio Generation Service" style="rounded=1;whiteSpace=wrap;html=1;fillColor=#4A90E2;strokeColor=#003087;fontColor=#FFFFFF;fontSize=14;" vertex="1" parent="1">
          <mxGeometry x="500" y="100" width="150" height="100" as="geometry"/>
        </mxCell>
        <!-- Voice Cloning Service (Azure Process) -->
        <mxCell id="6" value="Voice Cloning Service" style="rounded=1;whiteSpace=wrap;html=1;fillColor=#4A90E2;strokeColor=#003087;fontColor=#FFFFFF;fontSize=14;" vertex="1" parent="1">
          <mxGeometry x="700" y="100" width="150" height="100" as="geometry"/>
        </mxCell>
        <!-- Playback Module (Azure Process) -->
        <mxCell id="7" value="Playback Module" style="rounded=1;whiteSpace=wrap;html=1;fillColor=#4A90E2;strokeColor=#003087;fontColor=#FFFFFF;fontSize=14;" vertex="1" parent="1">
          <mxGeometry x="900" y="100" width="150" height="100" as="geometry"/>
        </mxCell>
        <!-- Output Storage (Azure Storage) -->
        <mxCell id="8" value="Output Storage" style="shape=cylinder;whiteSpace=wrap;html=1;fillColor=#D3EAFD;strokeColor=#005A9E;fontColor=#000000;fontSize=14;" vertex="1" parent="1">
          <mxGeometry x="900" y="300" width="150" height="100" as="geometry"/>
        </mxCell>
        <!-- Output Details -->
        <mxCell id="9" value="{voice_base}/&#xa;temp_audio.wav&#xa;cloned_output.wav" style="text;whiteSpace=wrap;html=1;fillColor=#E6F0FA;strokeColor=#005A9E;fontSize=12;" vertex="1" parent="1">
          <mxGeometry x="900" y="410" width="150" height="60" as="geometry"/>
        </mxCell>
        <!-- Infrastructure (Server) -->
        <mxCell id="10" value="Infrastructure" style="shape=server;whiteSpace=wrap;html=1;fillColor=#E6F0FA;strokeColor=#005A9E;fontColor=#000000;fontSize=14;" vertex="1" parent="1">
          <mxGeometry x="500" y="300" width="150" height="100" as="geometry"/>
        </mxCell>
        <!-- Infrastructure Details -->
        <mxCell id="11" value="GPU/CPU (torch)&#xa;tqdm Progress Bars&#xa;Text Cleaning&#xa;Suppressed Warnings" style="text;whiteSpace=wrap;html=1;fillColor=#F5F5F5;strokeColor=#666666;fontSize=12;" vertex="1" parent="1">
          <mxGeometry x="500" y="410" width="150" height="80" as="geometry"/>
        </mxCell>
        <!-- Arrows -->
        <mxCell id="12" style="edgeStyle=orthogonalEdgeStyle;rounded=0;html=1;jettySize=auto;orthogonalLoop=1;strokeColor=#005A9E;" edge="1" parent="1" source="2" target="4">
          <mxGeometry relative="1" as="geometry"/>
        </mxCell>
        <mxCell id="13" style="edgeStyle=orthogonalEdgeStyle;rounded=0;html=1;jettySize=auto;orthogonalLoop=1;strokeColor=#005A9E;" edge="1" parent="1" source="4" target="5">
          <mxGeometry relative="1" as="geometry"/>
        </mxCell>
        <mxCell id="14" style="edgeStyle=orthogonalEdgeStyle;rounded=0;html=1;jettySize=auto;orthogonalLoop=1;strokeColor=#005A9E;" edge="1" parent="1" source="5" target="6">
          <mxGeometry relative="1" as="geometry"/>
        </mxCell>
        <mxCell id="15" style="edgeStyle=orthogonalEdgeStyle;rounded=0;html=1;jettySize=auto;orthogonalLoop=1;strokeColor=#005A9E;" edge="1" parent="1" source="6" target="7">
          <mxGeometry relative="1" as="geometry"/>
        </mxCell>
        <mxCell id="16" style="edgeStyle=orthogonalEdgeStyle;rounded=0;html=1;jettySize=auto;orthogonalLoop=1;strokeColor=#005A9E;" edge="1" parent="1" source="7" target="8">
          <mxGeometry relative="1" as="geometry"/>
        </mxCell>
        <mxCell id="17" style="edgeStyle=orthogonalEdgeStyle;rounded=0;html=1;jettySize=auto;orthogonalLoop=1;strokeColor=#005A9E;" edge="1" parent="1" source="5" target="10">
          <mxGeometry relative="1" as="geometry"/>
        </mxCell>
      </root>
    </mxGraphModel>
  </diagram>
</mxfile>